<?xml version="1.0" standalone="no"?>
<!DOCTYPE svg PUBLIC "-//W3C//DTD SVG 1.1//EN" "http://www.w3.org/Graphics/SVG/1.1/DTD/svg11.dtd" >
<svg xmlns="http://www.w3.org/2000/svg">
<metadata></metadata>
<defs>
<font id="novecento_slab_condensenormal" horiz-adv-x="1001" >
<font-face units-per-em="2048" ascent="1681" descent="-367" />
<missing-glyph horiz-adv-x="327" />
<glyph horiz-adv-x="2048" />
<glyph horiz-adv-x="2048" />
<glyph unicode="&#xd;" horiz-adv-x="2048" />
<glyph unicode=" "  horiz-adv-x="327" />
<glyph unicode="&#x09;" horiz-adv-x="327" />
<glyph unicode="&#xa0;" horiz-adv-x="327" />
<glyph unicode="!" horiz-adv-x="507" d="M162 90q0 50 25 78.5t67 28.5t67 -28.5t25 -78.5q0 -49 -25 -76.5t-67 -27.5q-40 0 -65.5 27.5t-26.5 76.5zM184 344v1090h142v-1090h-142z" />
<glyph unicode="&#x22;" horiz-adv-x="546" d="M92 1434h137l-10 -459h-117zM309 1434h140l-11 -459h-119z" />
<glyph unicode="#" d="M55 236l27 126h147l88 426h-149l27 127h149l47 232h117l-47 -232h219l49 232h117l-49 -232h149l-26 -127h-148l-88 -426h150l-27 -126h-150l-49 -236h-116l49 236h-222l-49 -236h-116l49 236h-148zM346 362h221l88 426h-221z" />
<glyph unicode="$" horiz-adv-x="673" d="M59 0v340h121v-76q0 -70 43 -114t119 -44q67 0 106 43.5t39 118.5q0 37 -9.5 70t-23.5 57t-38 48.5t-44 40t-50 36.5q-10 7 -38 26.5t-40.5 29t-37 29.5t-37.5 34.5t-32 37t-29 44.5t-20.5 49.5t-15 59t-4.5 67.5q0 122 56.5 189t156.5 75v166h112v-178q63 -23 96 -86h5 l2 84h110v-324h-119v54q0 83 -39 125t-108 42q-63 0 -100 -35.5t-37 -113.5q0 -21 2 -39t10.5 -35.5t12.5 -29t19.5 -28t20.5 -23t27.5 -23.5t27 -21t32.5 -23t32 -22q56 -38 89.5 -65.5t73 -74t58.5 -107t19 -136.5q0 -131 -60.5 -202.5t-165.5 -79.5v-164h-112v174 q-82 26 -109 92h-4l-2 -88h-115z" />
<glyph unicode="%" horiz-adv-x="1089" d="M70 811q0 193 40 275.5t142 82.5q100 0 141 -83t41 -275q0 -196 -41 -280.5t-141 -84.5q-102 0 -142 83.5t-40 281.5zM166 811q0 -145 18 -200.5t68 -55.5t67 55t17 201q0 144 -17 197t-67 53t-68 -53.5t-18 -196.5zM342 0l305 1147h103l-306 -1147h-102zM655 350 q0 193 41.5 276t141.5 83q101 0 141.5 -82.5t40.5 -276.5q0 -197 -40.5 -280.5t-141.5 -83.5q-100 0 -141.5 84t-41.5 280zM752 350q0 -144 18.5 -200t67.5 -56q50 0 67 55t17 201q0 144 -17 198t-67 54q-49 0 -67.5 -55t-18.5 -197z" />
<glyph unicode="&#x26;" horiz-adv-x="860" d="M74 297q0 77 19 137t49.5 93.5t61.5 51.5t62 21v4q-24 6 -46 16.5t-47 31.5t-43 50t-30 75t-12 102q0 135 66.5 208.5t191.5 73.5q89 0 143 -28.5t78 -69.5h4l4 84h113v-326h-121v39q0 74 -46.5 125t-135.5 51q-156 0 -156 -174q0 -99 56 -152t159 -53h390v-125h-134 v-202q0 -80 -14 -139.5t-48 -109t-96.5 -75.5t-152.5 -26q-158 0 -236.5 81.5t-78.5 235.5zM205 313q0 -204 186 -204q96 0 136 58.5t40 180.5v184h-133q-229 0 -229 -219z" />
<glyph unicode="'" horiz-adv-x="329" d="M92 1434h137l-10 -459h-117z" />
<glyph unicode="(" horiz-adv-x="616" d="M115 580q0 436 101.5 682.5t318.5 330.5l47 -125q-79 -27 -138 -88t-95 -141t-58.5 -190t-30.5 -221t-8 -248q0 -136 8.5 -248t31 -221.5t58.5 -190t95 -141t137 -86.5l-47 -127q-217 84 -318.5 331t-101.5 683z" />
<glyph unicode=")" horiz-adv-x="616" d="M37 -307q97 33 163.5 114.5t101.5 205.5t49 259t14 308q0 172 -14.5 307.5t-49.5 259.5t-101.5 206t-162.5 115l45 125q218 -84 320 -331t102 -682t-102.5 -682.5t-319.5 -331.5z" />
<glyph unicode="*" horiz-adv-x="616" d="M57 1155l23 92l178 -45v234h98v-234l179 45l24 -92l-176 -51l104 -234l-81 -41l-99 209l-96 -209l-82 41l104 234z" />
<glyph unicode="+" d="M215 532v125h225v240h123v-240h223v-125h-223v-239h-123v239h-225z" />
<glyph unicode="," horiz-adv-x="399" d="M86 -131q45 18 77 54.5t38 80.5q-39 -6 -64.5 20.5t-25.5 69.5q0 47 24.5 75t67.5 28q49 0 76.5 -34.5t27.5 -96.5q0 -84 -44 -156.5t-116 -104.5z" />
<glyph unicode="-" horiz-adv-x="829" d="M129 532v125h571v-125h-571z" />
<glyph unicode="." horiz-adv-x="399" d="M109 90q0 51 24.5 79t67.5 28q42 0 66 -28t24 -79q0 -49 -24 -76.5t-66 -27.5t-67 27.5t-25 76.5z" />
<glyph unicode="/" horiz-adv-x="612" d="M14 0l445 1434h141l-442 -1434h-144z" />
<glyph unicode="0" horiz-adv-x="724" d="M72 573q0 317 66 454.5t224 137.5t224.5 -137.5t66.5 -454.5q0 -318 -66.5 -455.5t-224.5 -137.5t-224 137.5t-66 455.5zM209 573q0 -256 31.5 -360t121.5 -104q89 0 121.5 105t32.5 359q0 249 -32.5 356t-121.5 107q-90 0 -121.5 -106t-31.5 -357z" />
<glyph unicode="1" horiz-adv-x="608" d="M31 926l229 221h141v-1024h170v-123h-481v123h180v625q0 68 1.5 130t2.5 90l2 29h-6q-1 0 -9 -9.5t-23.5 -26t-28.5 -29.5l-98 -101z" />
<glyph unicode="2" horiz-adv-x="710" d="M72 799v352h108l2 -88h4q50 102 191 102q117 0 188.5 -74t71.5 -225q0 -104 -41.5 -191.5t-157.5 -238.5l-233 -313l2 -4l112 2h197v168h123v-289h-561v162l254 344q103 142 128 190q42 80 42 162q0 87 -37 133.5t-109 46.5q-46 0 -80.5 -19t-52 -49t-25.5 -59.5 t-8 -58.5v-53h-118z" />
<glyph unicode="3" horiz-adv-x="727" d="M76 262l121 37q2 -86 41.5 -139.5t119.5 -53.5q162 0 162 205q0 219 -188 219h-49v119h51q76 0 123 58t47 147q0 86 -39.5 135t-108.5 49q-71 0 -113 -53.5t-42 -124.5v-45h-119v336h108l3 -84h4q61 96 184 96q120 0 189 -78t69 -213q0 -71 -18 -126t-46.5 -85.5t-54 -47 t-49.5 -21.5v-4q28 -3 57 -19.5t59 -48t49 -90t19 -133.5q0 -150 -74.5 -233.5t-213.5 -83.5q-267 0 -291 282z" />
<glyph unicode="4" horiz-adv-x="722" d="M49 338v121l289 688h199v-690h114v-119h-114v-217h86v-121h-320v121h109v217h-363zM166 461l4 -4h242v329q0 31 0.5 68t1.5 69t2 59t2 44v16h-6z" />
<glyph unicode="5" horiz-adv-x="720" d="M72 293l121 33q10 -105 45.5 -162.5t111.5 -57.5q166 0 166 256q0 250 -160 250q-109 0 -153 -120l-119 28l80 627h452v-281h-122v152h-222l-22 -195q-19 -144 -27 -176l4 -2q17 32 59 57t109 25q128 0 191 -99.5t63 -277.5t-75 -274t-216 -96q-257 0 -286 313z" />
<glyph unicode="6" horiz-adv-x="724" d="M72 367q0 144 29 236t92 202l198 342h139l-278 -481l6 -4q45 59 150 59q123 0 191.5 -99.5t68.5 -254.5q0 -191 -82 -288t-217 -97q-138 0 -217.5 97t-79.5 288zM207 362q0 -256 164 -256t164 256q0 125 -41.5 192t-122.5 67q-164 0 -164 -259z" />
<glyph unicode="7" horiz-adv-x="700" d="M82 852v295h590v-139l-375 -1008h-135l311 813q15 41 35 95t30.5 82t10.5 30l-2 4h-344v-172h-121z" />
<glyph unicode="8" horiz-adv-x="749" d="M72 297q0 61 13.5 113t33.5 84.5t45.5 57.5t46 36.5t39.5 17.5v4q-55 25 -99.5 89t-44.5 169q0 131 71.5 214t197.5 83t196 -82.5t70 -214.5q0 -104 -43.5 -167.5t-97.5 -90.5v-4q24 -7 50 -25.5t56.5 -53t50 -95t19.5 -135.5q0 -142 -81.5 -229.5t-219.5 -87.5 t-220.5 87.5t-82.5 229.5zM201 315q0 -99 45.5 -158t128.5 -59t127.5 59t44.5 158q0 101 -45.5 162.5t-126.5 61.5q-82 0 -128 -62t-46 -162zM229 858q0 -83 38 -138.5t108 -55.5q69 0 107 55.5t38 138.5q0 91 -36.5 143t-108.5 52t-109 -52.5t-37 -142.5z" />
<glyph unicode="9" horiz-adv-x="722" d="M57 788q0 189 80 283t223 94q138 0 214.5 -95.5t76.5 -289.5q0 -126 -33 -235.5t-108 -255.5l-148 -289h-137l250 487l-4 2q-51 -67 -154 -67q-129 0 -194.5 97t-65.5 269zM188 788q0 -266 166 -266q162 0 162 266q0 252 -164 252t-164 -252z" />
<glyph unicode=":" horiz-adv-x="399" d="M109 90q0 51 24.5 79t67.5 28q42 0 66 -28t24 -79q0 -49 -24 -76.5t-66 -27.5t-67 27.5t-25 76.5zM109 762q0 51 24.5 78.5t67.5 27.5q42 0 66 -28t24 -78q0 -49 -24 -77t-66 -28t-67 28t-25 77z" />
<glyph unicode=";" horiz-adv-x="399" d="M86 -129q45 18 77 54t38 79q-39 -4 -64.5 21.5t-25.5 68.5q0 47 24.5 75t67.5 28q49 0 76.5 -34.5t27.5 -96.5q0 -82 -44.5 -154.5t-115.5 -104.5zM109 762q0 50 25 78t67 28t67 -28t25 -78q0 -49 -25 -77t-67 -28q-40 0 -65.5 28t-26.5 77z" />
<glyph unicode="&#x3c;" d="M233 528v140l494 438v-162l-387 -344v-6l387 -344v-160z" />
<glyph unicode="=" d="M215 362v125h571v-125h-571zM215 694v125h571v-125h-571z" />
<glyph unicode="&#x3e;" d="M274 90v160l388 344v6l-388 344v162l494 -438v-140z" />
<glyph unicode="?" horiz-adv-x="796" d="M55 1137q60 317 357 317q159 0 248.5 -98.5t89.5 -263.5q0 -159 -87.5 -283t-230.5 -188v-289h-139v356q309 130 309 397q0 113 -52.5 173.5t-148.5 60.5q-91 0 -140.5 -55t-72.5 -164zM266 90q0 50 25 78.5t67 28.5t67.5 -28.5t25.5 -78.5q0 -49 -25.5 -76.5 t-67.5 -27.5t-67 27.5t-25 76.5z" />
<glyph unicode="@" horiz-adv-x="1046" d="M51 545q0 270 53.5 436t155.5 238.5t262 72.5q246 0 360.5 -172t114.5 -557q0 -203 -43.5 -307t-146.5 -104q-65 0 -107 45t-51 100h-4q-16 -58 -56.5 -98.5t-109.5 -40.5q-107 0 -152.5 88t-45.5 289q0 202 44.5 288t151.5 86q36 0 65 -10.5t45.5 -27.5t25 -31t12.5 -27 h4v78h119v-492q0 -82 12 -115.5t49 -33.5q43 0 59.5 70.5t16.5 234.5q0 242 -37.5 379.5t-114 194.5t-209.5 57q-130 0 -207 -58.5t-116 -199.5t-39 -383q0 -231 38.5 -369t111 -195t188.5 -57q84 0 141.5 27t110.5 80l84 -66q-66 -68 -145.5 -106.5t-192.5 -38.5 q-231 0 -339 170t-108 555zM401 539q0 -154 21 -216.5t84 -62.5q123 0 123 211v115q0 225 -119 225q-35 0 -57 -16t-33.5 -53.5t-15 -83t-3.5 -119.5z" />
<glyph unicode="A" horiz-adv-x="989" d="M14 0v129h109l223 1057q20 110 21 114l-2 5h-113v129h350l264 -1305h109v-129h-365v129h111l-62 324h-337l-66 -324h113v-129h-355zM346 584h287l-60 303q-29 144 -48.5 250.5t-25 141.5t-5.5 36h-5q0 -1 -6 -36t-26 -142.5t-49 -253.5z" />
<glyph unicode="B" horiz-adv-x="856" d="M57 0v129h107v1176h-107v129h351q179 0 269.5 -91.5t90.5 -261.5q0 -80 -20.5 -142t-53.5 -96.5t-64.5 -52.5t-64.5 -24v-8q27 -6 56 -18.5t66 -41.5t65 -68.5t47.5 -105t19.5 -145.5q0 -183 -93.5 -281t-276.5 -98h-392zM305 129h146q114 0 171.5 72.5t57.5 193.5 q0 136 -69 216.5t-181 80.5h-125v-563zM305 815h119q96 0 155.5 63t59.5 187q0 240 -238 240h-96v-490z" />
<glyph unicode="C" horiz-adv-x="837" d="M51 721q0 277 40.5 440.5t114 228t191.5 64.5q181 0 240 -139h4l4 119h119v-455h-131v45q0 140 -56.5 217.5t-154.5 77.5q-130 0 -177.5 -136t-47.5 -448q0 -237 21.5 -370t70.5 -191.5t135 -58.5q97 0 146.5 72t68.5 229l133 -35q-12 -97 -34 -166.5t-61.5 -124.5 t-102.5 -82.5t-152 -27.5q-196 0 -283.5 170.5t-87.5 570.5z" />
<glyph unicode="D" horiz-adv-x="917" d="M57 0v129h109v1176h-109v129h379q100 0 174.5 -32t123 -90t78.5 -150t42 -202t12 -255q0 -144 -11.5 -251.5t-40 -196t-75 -143.5t-117.5 -84.5t-167 -29.5h-398zM307 129h129q70 0 120 23.5t81.5 66t49.5 114.5t25 155.5t7 201.5q0 341 -62.5 478t-230.5 137h-119v-1176 z" />
<glyph unicode="E" horiz-adv-x="849" d="M57 0v129h107v1176h-107v129h707v-351h-133v222h-326v-494h318v-129h-318v-553h336v252h133v-381h-717z" />
<glyph unicode="F" horiz-adv-x="823" d="M57 0v129h107v1176h-107v129h701v-351h-133v222h-320v-517h316v-129h-316v-530h129v-129h-377z" />
<glyph unicode="G" horiz-adv-x="870" d="M51 719q0 210 22 353t68 227t109.5 119.5t155.5 35.5q91 0 154.5 -39.5t86.5 -99.5h4l2 119h119v-455h-129v45q3 295 -213 295q-135 0 -184 -135.5t-49 -450.5q0 -343 52 -481.5t179 -138.5q52 0 93.5 21.5t67 56.5t40 72.5t20.5 76.5v281h-223v129h358v-750h-135v43 t0.5 34t0.5 25v18t0.5 11.5t0.5 6.5v3h-6q-82 -157 -246 -157q-117 0 -192 70t-115.5 234t-40.5 431z" />
<glyph unicode="H" horiz-adv-x="1015" d="M57 0v129h107v1176h-107v129h353v-129h-105v-492h406v492h-107v129h354v-129h-106v-1176h106v-129h-354v129h107v555h-406v-555h105v-129h-353z" />
<glyph unicode="I" horiz-adv-x="468" d="M57 0v129h107v1176h-107v129h353v-129h-105v-1176h105v-129h-353z" />
<glyph unicode="J" horiz-adv-x="651" d="M0 129l111 80q42 -90 147 -90q55 0 90.5 17.5t53 53.5t24 77t6.5 102v936h-199v129h340v-1065q0 -199 -77 -294t-238 -95q-192 0 -258 149z" />
<glyph unicode="K" horiz-adv-x="985" d="M57 0v129h107v1176h-107v129h351v-129h-107v-650h6q16 32 182 318l195 332h-98v129h356v-129h-108l-261 -424l271 -752h106v-129h-350v129h92l-211 600l-180 -293v-307h102v-129h-346z" />
<glyph unicode="L" horiz-adv-x="813" d="M57 0v129h107v1176h-107v129h353v-129h-105v-1176h320v211h135v-340h-703z" />
<glyph unicode="M" horiz-adv-x="1134" d="M57 0v129h107v1176h-107v129h316l198 -795h4l199 795h303v-129h-104v-1176h104v-129h-346v129h107v426q0 401 2 661v3h-6q-1 -1 -9.5 -40t-30.5 -130.5t-49 -192.5l-127 -477h-112l-125 477q-27 101 -48.5 192.5t-30 130.5t-9.5 40h-6v-3q0 -42 0.5 -97t1 -220t0.5 -344 v-426h106v-129h-338z" />
<glyph unicode="N" horiz-adv-x="1015" d="M57 0v129h107v1176h-107v129h277l411 -1201h7v11q0 12 -0.5 32.5t-0.5 48v61.5t-0.5 70t-0.5 78v80v691h-107v129h326v-129h-107v-1305h-174l-407 1196h-7v-11q0 -11 0.5 -30.5t0.5 -45.5v-59.5t0.5 -69t0.5 -77.5v-82v-692h107v-129h-326z" />
<glyph unicode="O" horiz-adv-x="866" d="M51 717q0 274 40 435t122 231.5t221 70.5q138 0 220.5 -70.5t122.5 -231.5t40 -435q0 -273 -39.5 -434t-122 -232t-221.5 -71t-221 70t-122 231t-40 436zM197 719q0 -232 22 -360.5t73 -186t142 -57.5t141 56.5t72.5 185t22.5 358.5q0 232 -22.5 361.5t-72.5 186 t-141 56.5t-142 -57t-73 -185t-22 -358z" />
<glyph unicode="P" horiz-adv-x="817" d="M57 0v129h107v1176h-107v129h346q186 0 283.5 -111t97.5 -328q0 -428 -387 -428h-92v-438h109v-129h-357zM305 694h86q127 0 188.5 73.5t61.5 227.5q0 310 -250 310h-86v-611z" />
<glyph unicode="Q" horiz-adv-x="866" d="M51 717q0 274 40 435t122 231.5t221 70.5q138 0 220.5 -70.5t122.5 -231.5t40 -435q0 -370 -73 -539t-240 -194v-252h-139v252q-167 25 -240.5 193.5t-73.5 539.5zM197 719q0 -232 22 -360.5t73 -186t142 -57.5t141 56.5t72.5 185t22.5 358.5q0 232 -22.5 361.5 t-72.5 186t-141 56.5t-142 -57t-73 -185t-22 -358z" />
<glyph unicode="R" horiz-adv-x="892" d="M57 0v129h107v1176h-107v129h363q180 0 275.5 -112t95.5 -296q0 -310 -228 -377l205 -520h106v-129h-217l-225 618h-131v-489h107v-129h-351zM301 737h133q213 0 213 285q0 135 -65 209t-183 74h-98v-568z" />
<glyph unicode="S" horiz-adv-x="776" d="M59 0v420h129v-96q0 -91 54.5 -151t150.5 -60q92 0 141.5 55t49.5 166q0 59 -15.5 107.5t-50.5 91.5t-69.5 73.5t-94.5 75.5q-107 81 -136 108q-118 109 -141 256q-7 43 -7 89q0 155 73.5 236t202.5 81q184 0 236 -125h4l4 107h119v-404h-131v74q0 106 -51.5 163.5 t-141.5 57.5q-77 0 -123.5 -47.5t-46.5 -147.5q0 -45 12 -84.5t27 -66.5t47.5 -59t54 -49t66.5 -50q54 -40 84 -64t71.5 -62t64 -71.5t45.5 -78.5t32.5 -97.5t9.5 -115.5q0 -173 -79 -261.5t-220 -88.5q-98 0 -158 35.5t-86 91.5h-6l-2 -109h-119z" />
<glyph unicode="T" horiz-adv-x="917" d="M51 1075v359h815v-359h-133v230h-203v-1176h119v-129h-381v129h119v1176h-205v-230h-131z" />
<glyph unicode="U" horiz-adv-x="972" d="M43 1305v129h354v-129h-104v-945q0 -121 46.5 -182t152.5 -61q107 0 153.5 61.5t46.5 181.5v945h-106v129h346v-129h-107v-938q0 -202 -84.5 -294.5t-253.5 -92.5q-171 0 -255.5 92.5t-84.5 294.5v938h-104z" />
<glyph unicode="V" horiz-adv-x="987" d="M27 1305v129h354v-129h-107l127 -662q31 -160 55.5 -293.5t32.5 -178.5t9 -46h6q0 34 96 518l127 662h-109v129h343v-129h-97l-262 -1305h-215l-264 1305h-96z" />
<glyph unicode="W" horiz-adv-x="1456" d="M27 1305v129h374v-129h-112l73 -525q82 -609 82 -655h7q1 1 10.5 61.5t31.5 196t48 279.5l108 598h168l125 -680q20 -108 38.5 -222.5t27.5 -173t10 -59.5h4q1 1 8 65.5t26 216t42 318.5l84 580h-115v129h363v-129h-109l-197 -1305h-215l-121 733q-11 61 -25 153.5 t-22.5 151.5t-9.5 60h-6q0 -2 -8.5 -61t-23 -149.5t-25.5 -154.5l-125 -733h-205l-201 1305h-110z" />
<glyph unicode="X" horiz-adv-x="946" d="M27 0v129h96l262 625l-233 551h-97v129h340v-129h-98l127 -310l61 -149h4q1 0 9 20.5t23 59t28 69.5l125 310h-94v129h313v-129h-100l-232 -562l262 -614h97v-129h-340v129h98l-133 315q-82 203 -84 203h-4q-2 0 -82 -198l-133 -320h98v-129h-313z" />
<glyph unicode="Y" horiz-adv-x="966" d="M20 1305v129h359v-129h-105l117 -299q98 -247 101 -250h4q1 1 11.5 28t36 92.5t50.5 129.5l119 299h-103v129h336v-129h-104l-287 -693v-483h104v-129h-352v129h107v483l-291 693h-103z" />
<glyph unicode="Z" horiz-adv-x="825" d="M57 0v143l453 922q35 73 65.5 132.5t42.5 82.5l13 23l-4 4h-9q-8 0 -22 -0.5t-31.5 -1t-39.5 -0.5h-42h-270v-222h-133v351h680v-148l-449 -921q-34 -71 -64.5 -129.5t-43.5 -81.5l-13 -23l5 -4h7q8 0 21.5 0.5t30.5 1t40.5 0.5h47.5h289v252h133v-381h-707z" />
<glyph unicode="[" horiz-adv-x="595" d="M193 -442v2041h321v-129h-188v-1783h188v-129h-321z" />
<glyph unicode="\" horiz-adv-x="612" d="M14 1434h142l444 -1434h-145z" />
<glyph unicode="]" horiz-adv-x="595" d="M82 -313h186v1783h-186v129h321v-2041h-321v129z" />
<glyph unicode="^" d="M162 784l284 650h127l269 -650l-121 -36l-211 550l-227 -550z" />
<glyph unicode="_" horiz-adv-x="995" d="M57 0h881v-129h-881v129z" />
<glyph unicode="`" horiz-adv-x="669" d="M197 1835l125 23l137 -314h-123z" />
<glyph unicode="a" horiz-adv-x="839" d="M14 0v123h90l144 676q39 182 45 219l-2 6h-86v123h315l213 -1024h92v-123h-323v123h94l-49 248h-268l-48 -248h95v-123h-312zM301 481h225l-51 256q-20 98 -34.5 173t-19 101.5t-5.5 28.5h-6q-66 -333 -109 -559z" />
<glyph unicode="b" horiz-adv-x="745" d="M57 0v123h88v901h-88v123h310q142 0 218.5 -75.5t76.5 -217.5q0 -116 -57 -180t-118 -68v-4q27 -4 53 -12.5t58 -29.5t55.5 -51t39.5 -81.5t16 -116.5q0 -157 -76.5 -234t-243.5 -77h-332zM276 123h111q102 0 146.5 51.5t44.5 151.5q0 108 -56.5 161.5t-150.5 53.5h-95 v-418zM276 657h97q71 0 118.5 47.5t47.5 137.5q0 92 -46.5 137t-127.5 45h-89v-367z" />
<glyph unicode="c" horiz-adv-x="722" d="M51 575q0 137 13 239.5t36.5 169t60 107.5t80 57.5t99.5 16.5q152 0 192 -110h5l2 94h114v-377h-121v37q0 112 -43 169.5t-118 57.5q-104 0 -143.5 -100.5t-39.5 -351.5q0 -186 18.5 -289t56.5 -144.5t106 -41.5q76 0 113 52.5t55 170.5l120 -33q-25 -161 -87.5 -240 t-200.5 -79q-112 0 -180 55.5t-103 187t-35 352.5z" />
<glyph unicode="d" horiz-adv-x="792" d="M57 0v121h88v903h-88v123h316q105 0 177.5 -38t114 -115.5t59 -181t17.5 -249.5q0 -143 -16.5 -243.5t-56.5 -174.5t-109.5 -109.5t-171.5 -35.5h-330zM281 123h100q56 0 95.5 17.5t65 50t39.5 87t19.5 119t5.5 156.5q0 264 -49.5 366.5t-183.5 102.5h-92v-899z" />
<glyph unicode="e" horiz-adv-x="741" d="M57 0v123h88v901h-88v123h600v-293h-122v170h-256v-375h256v-117h-256v-409h264v192h123v-315h-609z" />
<glyph unicode="f" horiz-adv-x="722" d="M57 0v123h88v901h-88v123h602v-293h-124v170h-254v-391h254v-117h-254v-393h112v-123h-336z" />
<glyph unicode="g" horiz-adv-x="761" d="M51 584q0 137 13 237.5t36.5 166t60.5 105.5t81 56t102 16q73 0 125.5 -29.5t71.5 -80.5h4l2 94h115v-369h-121v37q0 106 -43.5 162.5t-122.5 56.5q-107 0 -147 -99t-40 -345q0 -264 43.5 -373.5t145.5 -109.5q77 0 121 44t55 113v197h-170v121h295v-584h-125v38t0.5 30 t1 20.5t0.5 13.5v4h-6q-25 -53 -78.5 -87.5t-128.5 -34.5q-147 0 -219 140.5t-72 459.5z" />
<glyph unicode="h" horiz-adv-x="888" d="M57 0v123h88v901h-88v123h312v-123h-88v-375h327v375h-90v123h313v-123h-88v-901h88v-123h-313v123h90v409h-327v-409h88v-123h-312z" />
<glyph unicode="i" horiz-adv-x="425" d="M57 0v123h88v901h-88v123h312v-123h-88v-901h88v-123h-312z" />
<glyph unicode="j" horiz-adv-x="573" d="M0 106l106 76q29 -71 117 -71q81 0 108 47.5t27 144.5v721h-157v123h293v-846q0 -164 -66.5 -242.5t-204.5 -78.5q-167 0 -223 126z" />
<glyph unicode="k" horiz-adv-x="851" d="M57 0v123h88v901h-88v123h305v-123h-83v-492h4q14 34 96 168l196 324h-81v123h309v-123h-84l-223 -344l233 -557h88v-123h-303v123h76l-176 432l-135 -209v-223h81v-123h-303z" />
<glyph unicode="l" horiz-adv-x="712" d="M57 0v123h88v901h-88v123h312v-123h-88v-901h249v164h127v-287h-600z" />
<glyph unicode="m" horiz-adv-x="980" d="M57 0v123h88v901h-88v123h281l117 -467q11 -45 21 -87t13.5 -58.5t4.5 -16.5h6q1 0 39 160l114 469h271v-123h-88v-901h88v-123h-303v123h86v303v96t0.5 91.5t0.5 84t0.5 76t1 65.5t0.5 54.5t0.5 40t0.5 26.5v9h-6l-166 -664h-107l-166 664h-6v-9q0 -10 0.5 -26.5t1 -40 t1 -54.5t1 -65.5t1 -76t1 -84t0.5 -91.5v-96v-303h88v-123h-297z" />
<glyph unicode="n" horiz-adv-x="870" d="M57 0v123h88v901h-88v123h254l312 -930h4v807h-88v123h286v-123h-90v-1024h-164l-311 932h-4v-809h88v-123h-287z" />
<glyph unicode="o" horiz-adv-x="743" d="M51 575q0 226 36 356.5t103.5 182t180.5 51.5q114 0 182 -51.5t103.5 -182t35.5 -356.5q0 -224 -35.5 -355.5t-104 -185.5t-181.5 -54q-112 0 -180.5 54t-104 185.5t-35.5 355.5zM188 573q0 -183 18.5 -283.5t57 -140.5t107.5 -40q68 0 106.5 41t57 141.5t18.5 281.5 t-18.5 281t-56.5 141t-107 41t-107.5 -41t-57 -141t-18.5 -281z" />
<glyph unicode="p" horiz-adv-x="710" d="M57 0v123h88v901h-88v123h303q150 0 234 -91t84 -263q0 -175 -85 -263t-237 -88h-75v-319h88v-123h-312zM281 563h73q103 0 149 55t46 173q0 122 -47 177.5t-148 55.5h-73v-461z" />
<glyph unicode="q" horiz-adv-x="743" d="M51 575q0 226 36 356.5t103.5 182t180.5 51.5q114 0 182 -51.5t103.5 -182t35.5 -356.5q0 -298 -61 -433.5t-195 -157.5v-222h-127v222q-90 14 -145.5 75t-84 187t-28.5 329zM188 573q0 -183 18.5 -283.5t57 -140.5t107.5 -40q68 0 106.5 41t57 141.5t18.5 281.5 t-18.5 281t-56.5 141t-107 41t-107.5 -41t-57 -141t-18.5 -281z" />
<glyph unicode="r" horiz-adv-x="770" d="M59 0v123h88v901h-88v123h318q153 0 232 -89t79 -247q0 -115 -46.5 -188.5t-125.5 -102.5l133 -397h105v-123h-209l-154 485q-23 -2 -53 -2h-59v-360h88v-123h-308zM281 596h90q84 0 134 53t50 162q0 213 -199 213h-75v-428z" />
<glyph unicode="s" horiz-adv-x="673" d="M59 0v340h121v-76q0 -70 43 -114t119 -44q67 0 106 43.5t39 118.5q0 37 -10 70.5t-23.5 56.5t-40 49t-45.5 41.5t-53 40.5q-9 6 -36 25t-38.5 27.5t-36 28t-36.5 33.5t-31 36.5t-29 44.5t-20.5 49.5t-15 59t-4.5 67.5q0 130 62 197t169 67q137 0 190 -98h5l2 84h110v-324 h-119v54q0 83 -39 125t-108 42q-63 0 -100 -35.5t-37 -113.5q0 -43 11.5 -76t38.5 -61.5t51 -47t70 -49.5q14 -9 21 -14q42 -29 68 -49t61 -55.5t54.5 -71.5t34 -89t14.5 -114q0 -138 -68 -210t-182 -72q-149 0 -197 102h-4l-2 -88h-115z" />
<glyph unicode="t" horiz-adv-x="786" d="M51 846v301h684v-301h-121v178h-153v-901h100v-123h-336v123h101v901h-154v-178h-121z" />
<glyph unicode="u" horiz-adv-x="837" d="M43 1024v123h313v-123h-88v-723q0 -95 37 -143.5t119 -48.5t119 48.5t37 143.5v723h-88v123h305v-123h-90v-719q0 -165 -72 -245t-217 -80q-287 0 -287 325v719h-88z" />
<glyph unicode="v" horiz-adv-x="843" d="M27 1024v123h317v-123h-92l100 -500q24 -118 42.5 -220t24.5 -143t7 -42h4q1 1 7.5 41.5t25 143.5t41.5 220l100 500h-92v123h305v-123h-82l-211 -1024h-202l-213 1024h-82z" />
<glyph unicode="w" horiz-adv-x="1234" d="M27 1024v123h333v-123h-98l47 -330q17 -124 37 -271.5t30 -225.5t11 -80h4q1 2 13.5 79t32 193.5t32.5 190.5l72 436h166l73 -441q11 -66 31.5 -186t33 -195t13.5 -77h4q1 2 11 80t30 225.5t37 271.5l47 330h-98v123h319v-123h-94l-151 -1024h-201l-76 475 q-13 77 -29.5 176.5t-25.5 158t-10 60.5h-5q-1 -3 -10 -60t-25 -157.5t-28 -173.5l-80 -479h-194l-156 1024h-96z" />
<glyph unicode="x" horiz-adv-x="813" d="M29 0v123h75l218 471l-195 430h-82v123h305v-123h-84l101 -229q9 -22 20 -50t16.5 -41.5t6.5 -13.5h6q1 0 7 13t19 44t23 54l98 223h-84v123h295v-123h-86l-199 -432l211 -469h86v-123h-319v123h86l-61 153q-89 222 -97 222h-6q-29 -72 -92 -224l-64 -151h78v-123h-282z " />
<glyph unicode="y" horiz-adv-x="825" d="M20 1024v123h322v-123h-92l55 -145q116 -296 119 -299h6q1 1 13 32t44 113.5t60 153.5l55 145h-92v123h295v-123h-88l-236 -578v-323h90v-123h-313v123h88v323l-237 578h-89z" />
<glyph unicode="z" horiz-adv-x="712" d="M57 0v143l346 660q36 69 66.5 123.5t42.5 73.5l12 20l-4 6q-62 -2 -119 -2h-208v-170h-117v293h571v-148l-325 -624q-43 -83 -77.5 -145t-47.5 -82l-13 -21l2 -6h6q5 0 15 0.5t24 1t34 0.5h42h228v192h116v-315h-594z" />
<glyph unicode="{" horiz-adv-x="585" d="M57 512v143q11 3 21 6t31.5 19.5t36.5 40t27.5 70.5t12.5 108v264q0 446 310 449v-139q-177 -4 -177 -289v-269q0 -73 -12 -133.5t-28 -94t-36 -58.5t-31 -33.5t-19 -11.5q8 -3 19 -11.5t31 -33.5t36 -59.5t28 -95t12 -134.5v-266q0 -285 177 -289v-139q-310 3 -310 448 v264q0 62 -12.5 109t-27 70.5t-37 39.5t-31.5 19t-21 6z" />
<glyph unicode="|" horiz-adv-x="374" d="M123 -152v1739h129v-1739h-129z" />
<glyph unicode="}" horiz-adv-x="585" d="M90 -305q177 4 174 289v268q0 73 12 133.5t28.5 94.5t36.5 59t32 33.5t20 11.5q-8 3 -20 11.5t-32 33.5t-36.5 59.5t-28.5 95t-12 134.5v266q0 285 -174 289v139q309 -3 309 -449v-264q0 -62 12 -109t27 -70.5t36.5 -39.5t31.5 -19.5t22 -5.5v-143q-11 -2 -21.5 -5.5 t-32 -19.5t-36.5 -40t-27 -71t-12 -108v-264q0 -445 -309 -448v139z" />
<glyph unicode="~" d="M186 618q17 28 61 52t118 24q52 0 129.5 -30.5t123.5 -30.5q122 0 168 61l27 -123q-12 -26 -56 -48.5t-118 -22.5q-53 0 -132 31.5t-122 31.5q-49 0 -85 -11t-52.5 -23.5t-34.5 -32.5z" />
<glyph unicode="&#xa1;" horiz-adv-x="507" d="M162 1343q0 49 25 77t67 28t67 -28t25 -77q0 -50 -25 -78t-67 -28t-67 28t-25 78zM182 0v1090h142v-1090h-142z" />
<glyph unicode="&#xa2;" horiz-adv-x="692" d="M51 573q0 145 17 249t50 166t75 93t98 39v203h106v-211q44 -15 76.5 -47.5t40.5 -67.5l8 2l2 103h99v-354h-109v43q0 99 -40.5 156t-115.5 57q-95 0 -135.5 -99t-40.5 -330q0 -233 40.5 -332.5t131.5 -99.5q70 0 107.5 54t48.5 165l115 -34q-36 -266 -219 -299v-193h-105 v191q-126 19 -188 146.5t-62 399.5z" />
<glyph unicode="&#xa3;" horiz-adv-x="735" d="M57 496v129h74q-20 150 -20 252q0 61 10.5 109t35 89t71.5 63.5t114 22.5q149 0 205 -119l2 2l4 103h115v-342h-119v26q0 33 -7.5 64.5t-24.5 63.5t-51 51.5t-81 19.5q-41 0 -68.5 -14t-41.5 -42t-19.5 -61t-5.5 -79q0 -65 16 -209h254v-129h-235q12 -92 12 -164 q0 -147 -68 -199l2 -6q3 0 38.5 0.5t96 1t123.5 0.5h189v-129h-617v129q49 15 74 64t25 124q0 44 -15 179h-88z" />
<glyph unicode="&#xa4;" horiz-adv-x="811" d="M51 14l117 140q-70 120 -70 424q0 299 68 415l-115 142l82 67l105 -125q61 45 168 45q106 0 165 -45l107 125l82 -67l-117 -142q68 -119 68 -415q0 -304 -70 -424l119 -140l-80 -67l-105 125q-64 -47 -169 -47q-106 0 -170 47l-107 -125zM231 575q0 -167 17.5 -260 t54.5 -131.5t103 -38.5q65 0 101.5 38.5t53.5 131.5t17 260q0 164 -17 256t-53.5 131t-101.5 39q-98 0 -136.5 -92t-38.5 -334z" />
<glyph unicode="&#xa5;" horiz-adv-x="837" d="M27 1024v123h340v-123h-99l125 -317q34 -96 35 -97h4q1 1 6 14.5t14 38.5t15 42l127 319h-98v123h315v-123h-94l-117 -283h94v-116h-143l-45 -105h188v-119h-207v-278h88v-123h-311v123h88v278h-207v119h189l-45 105h-144v116h95l-119 283h-94z" />
<glyph unicode="&#xa6;" horiz-adv-x="374" d="M123 -152v584h129v-584h-129zM123 1004v583h129v-583h-129z" />
<glyph unicode="&#xa7;" d="M147 756q0 93 51.5 154.5t135.5 86.5q-78 38 -119 91t-41 137q0 62 22 108.5t60.5 74t85.5 41t102 13.5q97 0 167 -34t94 -80l4 2l2 84h114v-322h-118v78q0 67 -68 116.5t-166 49.5q-72 0 -118 -31.5t-46 -97.5q0 -23 5 -40.5t20 -33.5t27.5 -26t44 -25t50.5 -23t66 -26 q15 -6 23 -9q146 -60 197 -95q106 -71 110 -188v-11q0 -174 -178 -232q172 -84 172 -262q0 -61 -18.5 -109.5t-49 -79t-72.5 -51t-85 -28.5t-89 -8q-82 0 -148 24t-101 68l-4 -2l-5 -70h-116v350h121v-108q0 -68 66.5 -108t160.5 -40q37 0 70.5 7.5t66.5 24.5t52.5 51 t19.5 81q0 37 -14.5 66.5t-36 49.5t-63.5 39.5t-79.5 33t-101.5 34.5q-13 4 -19 6q-43 15 -70.5 26t-66.5 34.5t-61.5 49.5t-39 67t-16.5 92zM266 782q0 -26 8.5 -49t18.5 -39.5t32.5 -33t37 -26t47.5 -22t47 -17.5t52 -17t48 -15q69 11 116.5 49t47.5 113q0 18 -2.5 33.5 t-10.5 29.5t-13.5 25t-21.5 23.5t-24 19.5t-31 19t-32.5 17t-40 17.5t-41 16.5t-45.5 18l-13 4q-75 -10 -127.5 -52t-52.5 -114z" />
<glyph unicode="&#xa8;" horiz-adv-x="669" d="M131 1679q0 41 20 65.5t54 24.5q35 0 55.5 -24.5t20.5 -65.5q0 -43 -20.5 -67.5t-55.5 -24.5q-34 0 -54 24.5t-20 67.5zM391 1679q0 41 20.5 65.5t55.5 24.5q34 0 54 -24.5t20 -65.5q0 -43 -20 -67.5t-54 -24.5q-35 0 -55.5 24.5t-20.5 67.5z" />
<glyph unicode="&#xa9;" horiz-adv-x="1011" d="M53 557q0 270 49.5 435t147.5 238t256 73q157 0 254.5 -73t146.5 -237.5t49 -435.5t-49 -435t-146.5 -237t-254.5 -73q-158 0 -256 73t-147.5 237.5t-49.5 434.5zM147 557q0 -241 37.5 -383.5t115 -205t206.5 -62.5q128 0 205.5 62.5t115 205t37.5 383.5 q0 242 -37.5 384.5t-114.5 204.5t-206 62q-130 0 -207 -62t-114.5 -204.5t-37.5 -384.5zM293 561q0 148 21 235t60.5 121.5t104.5 34.5q46 0 78.5 -23.5t44.5 -56.5h4l2 72h88v-282h-94v47q0 59 -27 101t-75 42q-34 0 -54.5 -15t-31.5 -54t-14 -88t-3 -136 q0 -174 22.5 -233.5t88.5 -59.5q46 0 68 35t30 111l90 -27q-12 -113 -57 -166t-137 -53q-114 0 -161.5 88t-47.5 307z" />
<glyph unicode="&#xaa;" horiz-adv-x="636" d="M72 233v111h491v-111h-491zM72 481v92h43l118 488h-63v86h211l141 -574h41v-92h-186v92h45l-25 109h-166l-24 -109h45v-92h-180zM250 758h129l-25 112q-36 164 -37 164h-6q-1 0 -37 -164z" />
<glyph unicode="&#xab;" horiz-adv-x="980" d="M123 569l291 469l104 -67l-246 -398v-6l246 -399l-104 -68zM463 569l291 469l104 -67l-244 -398v-6l244 -399l-104 -68z" />
<glyph unicode="&#xad;" horiz-adv-x="829" d="M129 532v125h571v-125h-571z" />
<glyph unicode="&#xae;" horiz-adv-x="1011" d="M53 557q0 270 49.5 435t147.5 238t256 73q157 0 254.5 -73t146.5 -237.5t49 -435.5t-49 -435t-146.5 -237t-254.5 -73q-158 0 -256 73t-147.5 237.5t-49.5 434.5zM147 557q0 -241 37.5 -383.5t115 -205t206.5 -62.5q128 0 205.5 62.5t115 205t37.5 383.5 q0 242 -37.5 384.5t-114.5 204.5t-206 62q-130 0 -207 -62t-114.5 -204.5t-37.5 -384.5zM270 848v90h226q102 0 155.5 -57.5t53.5 -163.5q0 -73 -30.5 -122.5t-80.5 -70.5l88 -252h80v-90h-158l-106 322h-66v-232h49v-90h-209v90h58v576h-60zM430 586h53q58 0 87.5 29 t29.5 102q0 75 -27.5 103t-89.5 28h-53v-262z" />
<glyph unicode="&#xaf;" horiz-adv-x="669" d="M127 1599v127h430v-127h-430z" />
<glyph unicode="&#xb0;" horiz-adv-x="405" d="M27 1436q0 115 47 172t129 57q84 0 130 -56.5t46 -172.5t-46 -173t-130 -57q-82 0 -129 57.5t-47 172.5zM127 1436q0 -131 76 -131t76 131q0 69 -18.5 100t-57.5 31q-76 0 -76 -131z" />
<glyph unicode="&#xb1;" d="M215 4v123h571v-123h-571zM215 614v125h219v240h135v-240h217v-125h-217v-239h-135v239h-219z" />
<glyph unicode="&#xb2;" horiz-adv-x="552" d="M76 1499v266h86v-53h6q12 31 45 50.5t88 19.5q81 0 129.5 -52t48.5 -155q0 -84 -33.5 -150.5t-97.5 -138.5q-16 -20 -89.5 -115t-84.5 -106l4 -6q23 2 117 2h94v121h94v-215h-405v123l186 243q56 66 84.5 121.5t28.5 118.5q0 115 -98 115q-64 0 -88.5 -38.5t-24.5 -107.5 v-43h-90z" />
<glyph unicode="&#xb3;" horiz-adv-x="552" d="M68 1149l94 27q5 -61 33 -94t77 -33q53 0 82 35.5t29 103.5q0 151 -129 151h-35v88h35q53 0 86 35t33 103q0 125 -99 125q-57 0 -81.5 -42t-24.5 -106v-41h-94v264h86l2 -55h6q33 72 121 72q87 0 137.5 -52.5t50.5 -154.5q0 -51 -15 -90.5t-38 -59t-43 -29t-37 -10.5v-6 q57 -2 101 -55.5t44 -155.5q0 -100 -53.5 -159.5t-156.5 -59.5q-44 0 -80 14t-59 35t-39 48.5t-23.5 52.5t-9.5 49z" />
<glyph unicode="&#xb4;" horiz-adv-x="669" d="M229 1544l140 314l123 -23l-138 -291h-125z" />
<glyph unicode="&#xb6;" horiz-adv-x="929" d="M51 819q0 155 86 241.5t234 86.5h485v-129h-106v-1176h106v-129h-248v1305h-102v-1305h-242v129h107v650q-148 0 -234 86.5t-86 240.5z" />
<glyph unicode="&#xb7;" horiz-adv-x="399" d="M109 586q0 49 24.5 77.5t67.5 28.5q41 0 65.5 -28.5t24.5 -77.5q0 -51 -24 -79t-66 -28t-67 28.5t-25 78.5z" />
<glyph unicode="&#xb8;" horiz-adv-x="669" d="M207 -223q31 -23 80 -23q75 0 75 80q0 90 -124 90v111l124 -6v-52q55 -14 87 -55.5t32 -105.5q0 -73 -42 -120.5t-120 -47.5t-112 24v105z" />
<glyph unicode="&#xb9;" horiz-adv-x="552" d="M63 1624l166 141h117v-696h139v-102h-383v102h140v385q0 17 1 43.5t2 53.5t2 51.5t2 40.5l1 16h-6q-1 0 -6 -6t-15 -17t-20 -20l-78 -70z" />
<glyph unicode="&#xba;" horiz-adv-x="579" d="M72 813q0 185 52.5 268.5t166.5 83.5q115 0 166 -84.5t51 -267.5t-52 -265.5t-165 -82.5q-117 0 -168 84t-51 264zM90 233v111h399v-111h-399zM174 815q0 -138 26.5 -194t90.5 -56t89.5 57.5t25.5 192.5q0 138 -26.5 194t-88.5 56q-65 0 -91 -57t-26 -193z" />
<glyph unicode="&#xbb;" horiz-adv-x="980" d="M123 168l246 399v6l-246 398l104 67l291 -469l-291 -469zM463 168l246 399v6l-246 398l106 67l289 -469l-291 -469z" />
<glyph unicode="&#xbc;" horiz-adv-x="1275" d="M63 1292l166 142h117v-697h139v-102h-383v102h140v385q0 17 1 43.5t2 53.5t2 51.5t2 40.5l1 16h-6q-1 0 -6 -6t-15 -17t-20 -20l-78 -70zM369 0l428 1434h110l-430 -1434h-108zM770 240v96l211 465h154v-469h94v-92h-94v-142h69v-96h-254v96h88v142h-268zM862 334l4 -4 q2 0 16.5 0.5t41.5 1t59 0.5h55v131q0 30 0.5 59.5t1 53.5t1 45.5t1 38t1 28.5t1.5 18v7h-8q-1 0 -87.5 -188.5t-86.5 -190.5z" />
<glyph unicode="&#xbd;" horiz-adv-x="1275" d="M63 1292l166 142h117v-697h139v-102h-383v102h140v385q0 17 1 43.5t2 53.5t2 51.5t2 40.5l1 16h-6q-1 0 -6 -6t-15 -17t-20 -20l-78 -70zM369 0l428 1434h110l-430 -1434h-108zM799 532v269h84l2 -53h6q26 69 133 69q79 0 128.5 -52t49.5 -155q0 -84 -33.5 -148.5 t-97.5 -139.5q-17 -21 -90 -117t-84 -107l2 -4q10 0 52.5 1t66.5 1h94v119h94v-215h-405v125l186 244q56 66 84.5 121t28.5 116q0 117 -99 117q-65 0 -88.5 -38t-23.5 -107v-46h-90z" />
<glyph unicode="&#xbe;" horiz-adv-x="1275" d="M68 817l94 27q5 -61 33 -94t77 -33q53 0 82 35.5t29 103.5q0 76 -33.5 114t-95.5 38h-35v88h35q54 0 86.5 34.5t32.5 102.5q0 125 -99 125q-57 0 -81.5 -42t-24.5 -106v-41h-94v265h86l2 -56h6q33 72 121 72q87 0 137.5 -52.5t50.5 -154.5q0 -51 -15 -90t-38 -59t-43 -29 t-37 -10v-6q57 -2 101 -55.5t44 -155.5q0 -100 -53.5 -160t-156.5 -60q-44 0 -80 14t-59 35t-39 48.5t-23.5 52.5t-9.5 49zM369 0l428 1434h110l-430 -1434h-108zM770 240v96l211 465h154v-469h94v-92h-94v-142h69v-96h-254v96h88v142h-268zM862 334l4 -4q2 0 16.5 0.5 t41.5 1t59 0.5h55v131q0 30 0.5 59.5t1 53.5t1 45.5t1 38t1 28.5t1.5 18v7h-8q-1 0 -87.5 -188.5t-86.5 -190.5z" />
<glyph unicode="&#xbf;" horiz-adv-x="796" d="M47 342q0 159 87.5 283t230.5 188v289h139v-357q-309 -130 -309 -397q0 -113 52 -173t148 -60q91 0 140.5 55t70.5 164l135 -37q-31 -161 -118.5 -239t-237.5 -78q-159 0 -248.5 98.5t-89.5 263.5zM346 1343q0 49 25 77t67 28t67 -28t25 -77q0 -50 -25 -78t-67 -28 t-67 28t-25 78z" />
<glyph unicode="&#xc0;" horiz-adv-x="989" d="M14 0v129h109l223 1057q20 110 21 114l-2 5h-113v129h350l264 -1305h109v-129h-365v129h111l-62 324h-337l-66 -324h113v-129h-355zM283 1835l125 23l137 -314h-125zM346 584h287l-60 303q-29 144 -48.5 250.5t-25 141.5t-5.5 36h-5q0 -1 -6 -36t-26 -142.5t-49 -253.5z " />
<glyph unicode="&#xc1;" horiz-adv-x="989" d="M14 0v129h109l223 1057q20 110 21 114l-2 5h-113v129h350l264 -1305h109v-129h-365v129h111l-62 324h-337l-66 -324h113v-129h-355zM346 584h287l-60 303q-29 144 -48.5 250.5t-25 141.5t-5.5 36h-5q0 -1 -6 -36t-26 -142.5t-49 -253.5zM410 1544l137 314l125 -23 l-137 -291h-125z" />
<glyph unicode="&#xc2;" horiz-adv-x="989" d="M14 0v129h109l223 1057q20 110 21 114l-2 5h-113v129h350l264 -1305h109v-129h-365v129h111l-62 324h-337l-66 -324h113v-129h-355zM254 1620l217 231l217 -231l-80 -78l-137 150l-137 -150zM346 584h287l-60 303q-29 144 -48.5 250.5t-25 141.5t-5.5 36h-5q0 -1 -6 -36 t-26 -142.5t-49 -253.5z" />
<glyph unicode="&#xc3;" horiz-adv-x="989" d="M14 0v129h109l223 1057q20 110 21 114l-2 5h-113v129h350l264 -1305h109v-129h-365v129h111l-62 324h-337l-66 -324h113v-129h-355zM260 1726q38 48 115 48q47 0 104.5 -28t91.5 -28q64 0 101 37l33 -104q-9 -21 -38.5 -37.5t-78.5 -16.5q-46 0 -102 28t-93 28 q-62 0 -100 -33zM346 584h287l-60 303q-29 144 -48.5 250.5t-25 141.5t-5.5 36h-5q0 -1 -6 -36t-26 -142.5t-49 -253.5z" />
<glyph unicode="&#xc4;" horiz-adv-x="989" d="M14 0v129h109l223 1057q20 110 21 114l-2 5h-113v129h350l264 -1305h109v-129h-365v129h111l-62 324h-337l-66 -324h113v-129h-355zM266 1679q0 41 20 65.5t54 24.5q35 0 55.5 -24.5t20.5 -65.5q0 -43 -20.5 -67.5t-55.5 -24.5q-34 0 -54 24.5t-20 67.5zM346 584h287 l-60 303q-29 144 -48.5 250.5t-25 141.5t-5.5 36h-5q0 -1 -6 -36t-26 -142.5t-49 -253.5zM526 1679q0 41 20.5 65.5t55.5 24.5t54.5 -24t19.5 -66q0 -43 -19.5 -67.5t-54.5 -24.5t-55.5 24.5t-20.5 67.5z" />
<glyph unicode="&#xc5;" horiz-adv-x="989" d="M14 0v129h109l223 1057q20 110 21 114l-2 5h-113v129h350l264 -1305h109v-129h-365v129h111l-62 324h-337l-66 -324h113v-129h-355zM311 1696q0 83 44.5 132.5t123.5 49.5t123.5 -49.5t44.5 -132.5q0 -81 -45 -130.5t-123 -49.5t-123 49.5t-45 130.5zM346 584h287 l-60 303q-29 144 -48.5 250.5t-25 141.5t-5.5 36h-5q0 -1 -6 -36t-26 -142.5t-49 -253.5zM401 1696q0 -45 20 -69.5t58 -24.5q37 0 57.5 25t20.5 69q0 47 -20.5 71.5t-57.5 24.5q-78 0 -78 -96z" />
<glyph unicode="&#xc6;" horiz-adv-x="1255" d="M14 0v129h109l227 1053q22 112 25 118l-4 5h-119v129h917v-351h-135v222h-311v-492h317v-129h-317v-555h324v252h133v-381h-592v453h-264l-68 -324h104v-129h-346zM352 584h236v721h-96q-1 0 -7.5 -41.5t-20 -118t-26.5 -141.5z" />
<glyph unicode="&#xc7;" horiz-adv-x="837" d="M51 721q0 277 40.5 440.5t114 228t191.5 64.5q181 0 240 -139h4l4 119h119v-455h-131v45q0 140 -56.5 217.5t-154.5 77.5q-130 0 -177.5 -136t-47.5 -448q0 -237 21.5 -370t70.5 -191.5t135 -58.5q97 0 146.5 72t68.5 229l133 -35q-12 -91 -31.5 -157t-54 -120.5 t-89.5 -84.5t-132 -37v-5q56 -14 87.5 -55t31.5 -106q0 -73 -41 -120.5t-119 -47.5q-79 0 -113 24v105q31 -23 80 -23q35 0 54.5 20.5t19.5 59.5q0 90 -125 90v64q-152 31 -220.5 203.5t-68.5 529.5z" />
<glyph unicode="&#xc8;" horiz-adv-x="849" d="M57 0v129h107v1176h-107v129h707v-351h-133v222h-326v-494h318v-129h-318v-553h336v252h133v-381h-717zM246 1835l125 23l137 -314h-125z" />
<glyph unicode="&#xc9;" horiz-adv-x="849" d="M57 0v129h107v1176h-107v129h707v-351h-133v222h-326v-494h318v-129h-318v-553h336v252h133v-381h-717zM373 1544l137 314l125 -23l-137 -291h-125z" />
<glyph unicode="&#xca;" horiz-adv-x="849" d="M57 0v129h107v1176h-107v129h707v-351h-133v222h-326v-494h318v-129h-318v-553h336v252h133v-381h-717zM217 1620l217 231l217 -231l-80 -78l-137 150l-137 -150z" />
<glyph unicode="&#xcb;" horiz-adv-x="849" d="M57 0v129h107v1176h-107v129h707v-351h-133v222h-326v-494h318v-129h-318v-553h336v252h133v-381h-717zM229 1679q0 41 20 65.5t54 24.5q35 0 55.5 -24.5t20.5 -65.5q0 -43 -20.5 -67.5t-55.5 -24.5q-34 0 -54 24.5t-20 67.5zM489 1679q0 41 20.5 65.5t55.5 24.5 t54.5 -24t19.5 -66q0 -43 -19.5 -67.5t-54.5 -24.5t-55.5 24.5t-20.5 67.5z" />
<glyph unicode="&#xcc;" horiz-adv-x="468" d="M47 1835l123 23l139 -314h-125zM57 0v129h107v1176h-107v129h353v-129h-105v-1176h105v-129h-353z" />
<glyph unicode="&#xcd;" horiz-adv-x="468" d="M57 0v129h107v1176h-107v129h353v-129h-105v-1176h105v-129h-353zM172 1544l139 314l123 -23l-137 -291h-125z" />
<glyph unicode="&#xce;" horiz-adv-x="468" d="M45 1628l191 223l188 -223l-82 -74l-106 134l-109 -136zM57 0v129h107v1176h-107v129h353v-129h-105v-1176h105v-129h-353z" />
<glyph unicode="&#xcf;" horiz-adv-x="468" d="M57 0v129h107v1176h-107v129h353v-129h-105v-1176h105v-129h-353zM72 1679q0 90 67 90q68 0 68 -90q0 -92 -68 -92q-67 0 -67 92zM264 1679q0 90 68 90q65 0 65 -90q0 -92 -65 -92q-68 0 -68 92z" />
<glyph unicode="&#xd0;" horiz-adv-x="917" d="M57 0v129h109v547h-109v137h109v492h-109v129h379q100 0 174.5 -32t123 -90t78.5 -150t42 -202t12 -255q0 -144 -11.5 -251.5t-40 -196t-75 -143.5t-117.5 -84.5t-167 -29.5h-398zM307 129h129q70 0 120 23.5t81.5 66t49.5 114.5t25 155.5t7 201.5q0 341 -62.5 478 t-230.5 137h-119v-492h137v-137h-137v-547z" />
<glyph unicode="&#xd1;" horiz-adv-x="1015" d="M57 0v129h107v1176h-107v129h277l411 -1201h7v11q0 12 -0.5 32.5t-0.5 48v61.5t-0.5 70t-0.5 78v80v691h-107v129h326v-129h-107v-1305h-174l-407 1196h-7v-11q0 -11 0.5 -30.5t0.5 -45.5v-59.5t0.5 -69t0.5 -77.5v-82v-692h107v-129h-326zM299 1726q38 48 115 48 q47 0 104.5 -28t91.5 -28q64 0 101 37l32 -104q-9 -21 -38 -37.5t-78 -16.5q-45 0 -101 28t-94 28q-65 0 -98 -33z" />
<glyph unicode="&#xd2;" horiz-adv-x="866" d="M51 717q0 274 40 435t122 231.5t221 70.5q138 0 220.5 -70.5t122.5 -231.5t40 -435q0 -273 -39.5 -434t-122 -232t-221.5 -71t-221 70t-122 231t-40 436zM197 719q0 -232 22 -360.5t73 -186t142 -57.5t141 56.5t72.5 185t22.5 358.5q0 232 -22.5 361.5t-72.5 186 t-141 56.5t-142 -57t-73 -185t-22 -358zM244 1835l125 23l137 -314h-125z" />
<glyph unicode="&#xd3;" horiz-adv-x="866" d="M51 717q0 274 40 435t122 231.5t221 70.5q138 0 220.5 -70.5t122.5 -231.5t40 -435q0 -273 -39.5 -434t-122 -232t-221.5 -71t-221 70t-122 231t-40 436zM197 719q0 -232 22 -360.5t73 -186t142 -57.5t141 56.5t72.5 185t22.5 358.5q0 232 -22.5 361.5t-72.5 186 t-141 56.5t-142 -57t-73 -185t-22 -358zM371 1544l137 314l125 -23l-137 -291h-125z" />
<glyph unicode="&#xd4;" horiz-adv-x="866" d="M51 717q0 274 40 435t122 231.5t221 70.5q138 0 220.5 -70.5t122.5 -231.5t40 -435q0 -273 -39.5 -434t-122 -232t-221.5 -71t-221 70t-122 231t-40 436zM197 719q0 -232 22 -360.5t73 -186t142 -57.5t141 56.5t72.5 185t22.5 358.5q0 232 -22.5 361.5t-72.5 186 t-141 56.5t-142 -57t-73 -185t-22 -358zM215 1620l217 231l217 -231l-80 -78l-137 150l-137 -150z" />
<glyph unicode="&#xd5;" horiz-adv-x="866" d="M51 717q0 274 40 435t122 231.5t221 70.5q138 0 220.5 -70.5t122.5 -231.5t40 -435q0 -273 -39.5 -434t-122 -232t-221.5 -71t-221 70t-122 231t-40 436zM197 719q0 -232 22 -360.5t73 -186t142 -57.5t141 56.5t72.5 185t22.5 358.5q0 232 -22.5 361.5t-72.5 186 t-141 56.5t-142 -57t-73 -185t-22 -358zM221 1726q38 48 115 48q47 0 104.5 -28t91.5 -28q64 0 101 37l33 -104q-9 -21 -38.5 -37.5t-78.5 -16.5q-47 0 -102 28t-93 28q-62 0 -100 -33z" />
<glyph unicode="&#xd6;" horiz-adv-x="866" d="M51 717q0 274 40 435t122 231.5t221 70.5q138 0 220.5 -70.5t122.5 -231.5t40 -435q0 -273 -39.5 -434t-122 -232t-221.5 -71t-221 70t-122 231t-40 436zM197 719q0 -232 22 -360.5t73 -186t142 -57.5t141 56.5t72.5 185t22.5 358.5q0 232 -22.5 361.5t-72.5 186 t-141 56.5t-142 -57t-73 -185t-22 -358zM227 1679q0 41 20 65.5t54 24.5q35 0 55.5 -24.5t20.5 -65.5q0 -43 -20.5 -67.5t-55.5 -24.5q-34 0 -54 24.5t-20 67.5zM487 1679q0 41 20.5 65.5t55.5 24.5t54.5 -24t19.5 -66q0 -43 -19.5 -67.5t-54.5 -24.5t-55.5 24.5t-20.5 67.5 z" />
<glyph unicode="&#xd7;" d="M250 344l182 244l-182 243l94 70l158 -219l157 219l95 -70l-183 -243l183 -244l-95 -74l-157 222l-158 -218z" />
<glyph unicode="&#xd8;" horiz-adv-x="866" d="M51 717q0 274 40 435t122 231.5t221 70.5q126 0 203 -57l65 170l113 -43l-90 -230q92 -171 92 -577q0 -273 -39.5 -434t-122 -232t-221.5 -71q-122 0 -198 53l-62 -162l-115 45l86 217q-94 167 -94 584zM197 719q0 -250 26 -383l359 919q-52 64 -148 64q-91 0 -142 -57 t-73 -185t-22 -358zM291 174q50 -59 143 -59q91 0 141 56.5t72.5 185t22.5 358.5q0 231 -25 375z" />
<glyph unicode="&#xd9;" horiz-adv-x="972" d="M43 1305v129h354v-129h-104v-945q0 -121 46.5 -182t152.5 -61q107 0 153.5 61.5t46.5 181.5v945h-106v129h346v-129h-107v-938q0 -202 -84.5 -294.5t-253.5 -92.5q-171 0 -255.5 92.5t-84.5 294.5v938h-104zM303 1835l125 23l137 -314h-125z" />
<glyph unicode="&#xda;" horiz-adv-x="972" d="M43 1305v129h354v-129h-104v-945q0 -121 46.5 -182t152.5 -61q107 0 153.5 61.5t46.5 181.5v945h-106v129h346v-129h-107v-938q0 -202 -84.5 -294.5t-253.5 -92.5q-171 0 -255.5 92.5t-84.5 294.5v938h-104zM430 1544l137 314l125 -23l-137 -291h-125z" />
<glyph unicode="&#xdb;" horiz-adv-x="972" d="M43 1305v129h354v-129h-104v-945q0 -121 46.5 -182t152.5 -61q107 0 153.5 61.5t46.5 181.5v945h-106v129h346v-129h-107v-938q0 -202 -84.5 -294.5t-253.5 -92.5q-171 0 -255.5 92.5t-84.5 294.5v938h-104zM274 1620l218 231l217 -231l-80 -78l-137 150l-138 -150z" />
<glyph unicode="&#xdc;" horiz-adv-x="972" d="M43 1305v129h354v-129h-104v-945q0 -121 46.5 -182t152.5 -61q107 0 153.5 61.5t46.5 181.5v945h-106v129h346v-129h-107v-938q0 -202 -84.5 -294.5t-253.5 -92.5q-171 0 -255.5 92.5t-84.5 294.5v938h-104zM287 1679q0 41 19.5 65.5t53.5 24.5q35 0 55.5 -24.5 t20.5 -65.5q0 -43 -20.5 -67.5t-55.5 -24.5q-34 0 -53.5 24.5t-19.5 67.5zM547 1679q0 41 20.5 65.5t55.5 24.5q34 0 53.5 -24.5t19.5 -65.5q0 -43 -19.5 -67.5t-53.5 -24.5q-35 0 -55.5 24.5t-20.5 67.5z" />
<glyph unicode="&#xdd;" horiz-adv-x="966" d="M20 1305v129h359v-129h-105l117 -299q98 -247 101 -250h4q1 1 11.5 28t36 92.5t50.5 129.5l119 299h-103v129h336v-129h-104l-287 -693v-483h104v-129h-352v129h107v483l-291 693h-103zM434 1544l139 314l125 -23l-139 -291h-125z" />
<glyph unicode="&#xde;" horiz-adv-x="794" d="M57 0v129h107v1176h-107v129h353v-129h-105v-195h88q177 0 271.5 -93t95.5 -282q0 -188 -95 -280.5t-272 -92.5h-88v-233h105v-129h-353zM305 492h76q119 0 177.5 58t59.5 183q0 127 -58.5 186.5t-178.5 59.5h-76v-487z" />
<glyph unicode="&#xdf;" horiz-adv-x="843" d="M57 0v117h88v1030h594l-207 -457l7 -6h4q106 0 181 -96t75 -269q0 -156 -67 -247.5t-197 -91.5q-72 0 -124.5 30t-74.5 82l57 94q22 -44 49.5 -65t75.5 -21q152 0 152 215q0 130 -51 192t-140 62h-71v125l149 332l-2 4h-274v-1030h-224z" />
<glyph unicode="&#xe0;" horiz-adv-x="839" d="M14 0v123h90l144 676q39 182 45 219l-2 6h-86v123h315l213 -1024h92v-123h-323v123h94l-49 248h-268l-48 -248h95v-123h-312zM207 1548l123 23l139 -314h-125zM301 481h225l-51 256q-20 98 -34.5 173t-19 101.5t-5.5 28.5h-6q-66 -333 -109 -559z" />
<glyph unicode="&#xe1;" horiz-adv-x="839" d="M14 0v123h90l144 676q39 182 45 219l-2 6h-86v123h315l213 -1024h92v-123h-323v123h94l-49 248h-268l-48 -248h95v-123h-312zM301 481h225l-51 256q-20 98 -34.5 173t-19 101.5t-5.5 28.5h-6q-66 -333 -109 -559zM332 1257l139 314l125 -23l-139 -291h-125z" />
<glyph unicode="&#xe2;" horiz-adv-x="839" d="M14 0v123h90l144 676q39 182 45 219l-2 6h-86v123h315l213 -1024h92v-123h-323v123h94l-49 248h-268l-48 -248h95v-123h-312zM205 1341l190 224l189 -224l-82 -73l-107 133l-108 -135zM301 481h225l-51 256q-20 98 -34.5 173t-19 101.5t-5.5 28.5h-6q-66 -333 -109 -559z " />
<glyph unicode="&#xe3;" horiz-adv-x="839" d="M14 0v123h90l144 676q39 182 45 219l-2 6h-86v123h315l213 -1024h92v-123h-323v123h94l-49 248h-268l-48 -248h95v-123h-312zM201 1440q29 47 102 47q40 0 92.5 -27.5t81.5 -27.5q57 0 88 36l33 -104q-23 -53 -104 -53q-40 0 -90.5 27.5t-84.5 27.5q-53 0 -86 -33z M301 481h225l-51 256q-20 98 -34.5 173t-19 101.5t-5.5 28.5h-6q-66 -333 -109 -559z" />
<glyph unicode="&#xe4;" horiz-adv-x="839" d="M14 0v123h90l144 676q39 182 45 219l-2 6h-86v123h315l213 -1024h92v-123h-323v123h94l-49 248h-268l-48 -248h95v-123h-312zM231 1393q0 90 68 90t68 -90q0 -93 -68 -93t-68 93zM301 481h225l-51 256q-20 98 -34.5 173t-19 101.5t-5.5 28.5h-6q-66 -333 -109 -559z M424 1393q0 90 68 90q65 0 65 -90q0 -93 -65 -93q-68 0 -68 93z" />
<glyph unicode="&#xe5;" horiz-adv-x="839" d="M14 0v123h90l144 676q39 182 45 219l-2 6h-86v123h315l213 -1024h92v-123h-323v123h94l-49 248h-268l-48 -248h95v-123h-312zM227 1409q0 83 44.5 132.5t123.5 49.5t123.5 -49.5t44.5 -132.5q0 -81 -45 -130.5t-123 -49.5t-123 49.5t-45 130.5zM301 481h225l-51 256 q-20 98 -34.5 173t-19 101.5t-5.5 28.5h-6q-66 -333 -109 -559zM317 1409q0 -45 20 -69.5t58 -24.5q37 0 57.5 25t20.5 69q0 47 -20.5 71.5t-57.5 24.5q-78 0 -78 -96z" />
<glyph unicode="&#xe6;" horiz-adv-x="1089" d="M14 0v123h99l170 805l18 94l-2 4q-23 -2 -66 -2h-28v123h801v-293h-123v170h-256v-375h254v-117h-254v-409h264v192h123v-315h-514v371h-211l-49 -248h73v-123h-299zM311 483h189v551h-84q-1 0 -6.5 -32t-16 -95.5t-18.5 -107.5z" />
<glyph unicode="&#xe7;" horiz-adv-x="722" d="M51 575q0 137 13 239.5t36.5 169t60 107.5t80 57.5t99.5 16.5q152 0 192 -110h5l2 94h114v-377h-121v37q0 112 -43 169.5t-118 57.5q-104 0 -143.5 -100.5t-39.5 -351.5q0 -186 18.5 -289t56.5 -144.5t106 -41.5q76 0 113 52.5t55 170.5l120 -33q-24 -150 -80.5 -228.5 t-173.5 -88.5v-5q55 -14 87 -55.5t32 -105.5q0 -73 -42 -120.5t-120 -47.5t-112 24v105q31 -23 80 -23q75 0 75 80q0 90 -124 90v66q-119 31 -173.5 167.5t-54.5 417.5z" />
<glyph unicode="&#xe8;" horiz-adv-x="741" d="M57 0v123h88v901h-88v123h600v-293h-122v170h-256v-375h256v-117h-256v-409h264v192h123v-315h-609zM197 1548l125 23l137 -314h-125z" />
<glyph unicode="&#xe9;" horiz-adv-x="741" d="M57 0v123h88v901h-88v123h600v-293h-122v170h-256v-375h256v-117h-256v-409h264v192h123v-315h-609zM324 1257l137 314l125 -23l-137 -291h-125z" />
<glyph unicode="&#xea;" horiz-adv-x="741" d="M57 0v123h88v901h-88v123h600v-293h-122v170h-256v-375h256v-117h-256v-409h264v192h123v-315h-609zM168 1333l217 232l217 -232l-80 -78l-137 150l-137 -150z" />
<glyph unicode="&#xeb;" horiz-adv-x="741" d="M57 0v123h88v901h-88v123h600v-293h-122v170h-256v-375h256v-117h-256v-409h264v192h123v-315h-609zM180 1393q0 41 20 65.5t54 24.5q35 0 55.5 -24.5t20.5 -65.5q0 -43 -20.5 -68t-55.5 -25q-34 0 -54 25t-20 68zM440 1393q0 41 20.5 65.5t55.5 24.5q34 0 54 -24.5 t20 -65.5q0 -43 -20 -68t-54 -25q-35 0 -55.5 25t-20.5 68z" />
<glyph unicode="&#xec;" horiz-adv-x="425" d="M27 1548l123 23l139 -314h-125zM57 0v123h88v901h-88v123h312v-123h-88v-901h88v-123h-312z" />
<glyph unicode="&#xed;" horiz-adv-x="425" d="M57 0v123h88v901h-88v123h312v-123h-88v-901h88v-123h-312zM152 1257l139 314l123 -23l-138 -291h-124z" />
<glyph unicode="&#xee;" horiz-adv-x="425" d="M25 1341l190 224l188 -224l-81 -73l-107 133l-109 -135zM57 0v123h88v901h-88v123h312v-123h-88v-901h88v-123h-312z" />
<glyph unicode="&#xef;" horiz-adv-x="425" d="M51 1393q0 90 68 90q67 0 67 -90q0 -93 -67 -93q-68 0 -68 93zM57 0v123h88v901h-88v123h312v-123h-88v-901h88v-123h-312zM244 1393q0 90 67 90q66 0 66 -90q0 -93 -66 -93q-67 0 -67 93z" />
<glyph unicode="&#xf0;" horiz-adv-x="792" d="M57 0v121h88v405h-88v129h88v369h-88v123h316q105 0 177.5 -38t114 -115.5t59 -181t17.5 -249.5q0 -143 -16.5 -243.5t-56.5 -174.5t-109.5 -109.5t-171.5 -35.5h-330zM281 123h100q56 0 95.5 17.5t65 50t39.5 87t19.5 119t5.5 156.5q0 264 -49.5 366.5t-183.5 102.5h-92 v-367h129v-129h-129v-403z" />
<glyph unicode="&#xf1;" horiz-adv-x="870" d="M57 0v123h88v901h-88v123h254l312 -930h4v807h-88v123h286v-123h-90v-1024h-164l-311 932h-4v-809h88v-123h-287zM242 1440q29 47 102 47q40 0 92.5 -27.5t81.5 -27.5q56 0 88 36l33 -104q-9 -21 -35 -37t-69 -16q-40 0 -90.5 27.5t-84.5 27.5q-53 0 -86 -33z" />
<glyph unicode="&#xf2;" horiz-adv-x="743" d="M51 575q0 226 36 356.5t103.5 182t180.5 51.5q114 0 182 -51.5t103.5 -182t35.5 -356.5q0 -224 -35.5 -355.5t-104 -185.5t-181.5 -54q-112 0 -180.5 54t-104 185.5t-35.5 355.5zM184 1548l125 23l137 -314h-124zM188 573q0 -183 18.5 -283.5t57 -140.5t107.5 -40 q68 0 106.5 41t57 141.5t18.5 281.5t-18.5 281t-56.5 141t-107 41t-107.5 -41t-57 -141t-18.5 -281z" />
<glyph unicode="&#xf3;" horiz-adv-x="743" d="M51 575q0 226 36 356.5t103.5 182t180.5 51.5q114 0 182 -51.5t103.5 -182t35.5 -356.5q0 -224 -35.5 -355.5t-104 -185.5t-181.5 -54q-112 0 -180.5 54t-104 185.5t-35.5 355.5zM188 573q0 -183 18.5 -283.5t57 -140.5t107.5 -40q68 0 106.5 41t57 141.5t18.5 281.5 t-18.5 281t-56.5 141t-107 41t-107.5 -41t-57 -141t-18.5 -281zM311 1257l138 314l124 -23l-137 -291h-125z" />
<glyph unicode="&#xf4;" horiz-adv-x="743" d="M51 575q0 226 36 356.5t103.5 182t180.5 51.5q114 0 182 -51.5t103.5 -182t35.5 -356.5q0 -224 -35.5 -355.5t-104 -185.5t-181.5 -54q-112 0 -180.5 54t-104 185.5t-35.5 355.5zM156 1333l217 232l217 -232l-80 -78l-137 150l-137 -150zM188 573q0 -183 18.5 -283.5 t57 -140.5t107.5 -40q68 0 106.5 41t57 141.5t18.5 281.5t-18.5 281t-56.5 141t-107 41t-107.5 -41t-57 -141t-18.5 -281z" />
<glyph unicode="&#xf5;" horiz-adv-x="743" d="M51 575q0 226 36 356.5t103.5 182t180.5 51.5q114 0 182 -51.5t103.5 -182t35.5 -356.5q0 -224 -35.5 -355.5t-104 -185.5t-181.5 -54q-112 0 -180.5 54t-104 185.5t-35.5 355.5zM178 1440q29 47 103 47q41 0 93.5 -27.5t80.5 -27.5q54 0 90 36l30 -104q-7 -21 -33 -37 t-69 -16q-41 0 -91 27.5t-83 27.5q-55 0 -88 -33zM188 573q0 -183 18.5 -283.5t57 -140.5t107.5 -40q68 0 106.5 41t57 141.5t18.5 281.5t-18.5 281t-56.5 141t-107 41t-107.5 -41t-57 -141t-18.5 -281z" />
<glyph unicode="&#xf6;" horiz-adv-x="743" d="M51 575q0 226 36 356.5t103.5 182t180.5 51.5q114 0 182 -51.5t103.5 -182t35.5 -356.5q0 -224 -35.5 -355.5t-104 -185.5t-181.5 -54q-112 0 -180.5 54t-104 185.5t-35.5 355.5zM168 1393q0 41 20 65.5t54 24.5q35 0 55 -24t20 -66q0 -43 -20 -68t-55 -25q-34 0 -54 25 t-20 68zM188 573q0 -183 18.5 -283.5t57 -140.5t107.5 -40q68 0 106.5 41t57 141.5t18.5 281.5t-18.5 281t-56.5 141t-107 41t-107.5 -41t-57 -141t-18.5 -281zM428 1393q0 41 20.5 65.5t55.5 24.5t54.5 -24t19.5 -66q0 -43 -19.5 -68t-54.5 -25t-55.5 25t-20.5 68z" />
<glyph unicode="&#xf7;" d="M215 518v125h571v-125h-571zM410 283q0 49 25 76.5t67 27.5t67 -27.5t25 -76.5q0 -50 -25 -78.5t-67 -28.5t-67 28.5t-25 78.5zM410 881q0 50 25 78t67 28t67 -28t25 -78q0 -49 -25 -77t-67 -28t-67 28t-25 77z" />
<glyph unicode="&#xf8;" horiz-adv-x="743" d="M51 575q0 226 36 356.5t103.5 182t180.5 51.5q94 0 147 -30l47 127l105 -35l-64 -172q86 -133 86 -480q0 -224 -35.5 -355.5t-104 -185.5t-181.5 -54q-94 0 -152 34l-45 -125l-106 39l65 172q-82 137 -82 475zM188 573q0 -157 17 -276l264 707q-35 32 -98 32 q-69 0 -107.5 -41t-57 -141t-18.5 -281zM268 145q36 -36 103 -36q68 0 106.5 41t57 141.5t18.5 281.5q0 184 -18 289z" />
<glyph unicode="&#xf9;" horiz-adv-x="837" d="M43 1024v123h313v-123h-88v-723q0 -95 37 -143.5t119 -48.5t119 48.5t37 143.5v723h-88v123h305v-123h-90v-719q0 -165 -72 -245t-217 -80q-287 0 -287 325v719h-88zM236 1548l122 23l140 -314h-125z" />
<glyph unicode="&#xfa;" horiz-adv-x="837" d="M43 1024v123h313v-123h-88v-723q0 -95 37 -143.5t119 -48.5t119 48.5t37 143.5v723h-88v123h305v-123h-90v-719q0 -165 -72 -245t-217 -80q-287 0 -287 325v719h-88zM360 1257l140 314l123 -23l-138 -291h-125z" />
<glyph unicode="&#xfb;" horiz-adv-x="837" d="M43 1024v123h313v-123h-88v-723q0 -95 37 -143.5t119 -48.5t119 48.5t37 143.5v723h-88v123h305v-123h-90v-719q0 -165 -72 -245t-217 -80q-287 0 -287 325v719h-88zM205 1333l219 232l217 -232l-82 -78l-135 150l-137 -150z" />
<glyph unicode="&#xfc;" horiz-adv-x="837" d="M43 1024v123h313v-123h-88v-723q0 -95 37 -143.5t119 -48.5t119 48.5t37 143.5v723h-88v123h305v-123h-90v-719q0 -165 -72 -245t-217 -80q-287 0 -287 325v719h-88zM217 1393q0 41 20.5 65.5t55.5 24.5t55.5 -24.5t20.5 -65.5q0 -43 -20.5 -68t-55.5 -25t-55.5 25 t-20.5 68zM479 1393q0 41 20.5 65.5t55.5 24.5q34 0 54 -24.5t20 -65.5q0 -43 -20 -68t-54 -25q-35 0 -55.5 25t-20.5 68z" />
<glyph unicode="&#xfd;" horiz-adv-x="825" d="M20 1024v123h322v-123h-92l55 -145q116 -296 119 -299h6q1 1 13 32t44 113.5t60 153.5l55 145h-92v123h295v-123h-88l-236 -578v-323h90v-123h-313v123h88v323l-237 578h-89zM362 1257l138 314l125 -23l-138 -291h-125z" />
<glyph unicode="&#xfe;" horiz-adv-x="698" d="M57 0v117h88v913h-88v117h312v-117h-88v-149h84q138 0 218.5 -71.5t80.5 -223.5q0 -151 -81 -222t-218 -71h-84v-176h88v-117h-312zM281 403h79q87 0 132 42.5t45 138.5q0 97 -45 139.5t-132 42.5h-79v-363z" />
<glyph unicode="&#xff;" horiz-adv-x="825" d="M20 1024v123h322v-123h-92l55 -145q116 -296 119 -299h6q1 1 13 32t44 113.5t60 153.5l55 145h-92v123h295v-123h-88l-236 -578v-323h90v-123h-313v123h88v323l-237 578h-89zM219 1393q0 41 20 65.5t54 24.5q35 0 55.5 -24.5t20.5 -65.5q0 -43 -20.5 -68t-55.5 -25 q-34 0 -54 25t-20 68zM479 1393q0 41 20.5 65.5t55.5 24.5q34 0 54 -24.5t20 -65.5q0 -43 -20 -68t-54 -25q-35 0 -55.5 25t-20.5 68z" />
<glyph unicode="&#x152;" horiz-adv-x="1187" d="M51 717q0 173 17.5 299.5t49 208t83.5 130t113 68t145 19.5q53 0 92 -8h551v-351h-133v222h-299v-492h291v-129h-291v-555h311v252h131v-381h-561q-39 -8 -92 -8q-86 0 -149 21t-113.5 71t-81.5 133.5t-47.5 207t-16.5 292.5zM197 717q0 -143 10.5 -246t30.5 -169.5 t53.5 -105.5t73.5 -54t96 -15q41 0 74 10v1157q-33 13 -74 13q-97 0 -152.5 -50.5t-83.5 -180t-28 -359.5z" />
<glyph unicode="&#x153;" horiz-adv-x="1044" d="M51 575q0 212 34.5 340t102.5 184t177 56q54 0 90 -8h506v-293h-123v170h-256v-375h254v-117h-254v-411h264v194h125v-315l-516 2q-36 -8 -90 -8q-163 0 -238.5 136t-75.5 445zM188 573q0 -172 19 -270t57.5 -139t104.5 -41q49 0 86 6v887q-29 10 -86 10 q-102 0 -141.5 -104.5t-39.5 -348.5z" />
<glyph unicode="&#x178;" horiz-adv-x="966" d="M20 1305v129h359v-129h-105l117 -299q98 -247 101 -250h4q1 1 11.5 28t36 92.5t50.5 129.5l119 299h-103v129h336v-129h-104l-287 -693v-483h104v-129h-352v129h107v483l-291 693h-103zM291 1679q0 41 20.5 65.5t55.5 24.5t55 -24t20 -66q0 -43 -20 -67.5t-55 -24.5 t-55.5 24.5t-20.5 67.5zM553 1679q0 41 20.5 65.5t55.5 24.5q34 0 53.5 -24.5t19.5 -65.5q0 -43 -19.5 -67.5t-53.5 -24.5q-35 0 -55.5 24.5t-20.5 67.5z" />
<glyph unicode="&#x2c6;" horiz-adv-x="669" d="M121 1620l217 231l217 -231l-80 -78l-137 150l-135 -150z" />
<glyph unicode="&#x2dc;" horiz-adv-x="669" d="M147 1726q29 48 101 48q41 0 93.5 -28t80.5 -28q53 0 90 37l31 -104q-7 -21 -33.5 -37.5t-69.5 -16.5q-40 0 -90 28t-84 28q-50 0 -88 -33z" />
<glyph unicode="&#x2000;" horiz-adv-x="939" />
<glyph unicode="&#x2001;" horiz-adv-x="1878" />
<glyph unicode="&#x2002;" horiz-adv-x="939" />
<glyph unicode="&#x2003;" horiz-adv-x="1878" />
<glyph unicode="&#x2004;" horiz-adv-x="626" />
<glyph unicode="&#x2005;" horiz-adv-x="469" />
<glyph unicode="&#x2006;" horiz-adv-x="313" />
<glyph unicode="&#x2007;" horiz-adv-x="313" />
<glyph unicode="&#x2008;" horiz-adv-x="234" />
<glyph unicode="&#x2009;" horiz-adv-x="375" />
<glyph unicode="&#x200a;" horiz-adv-x="104" />
<glyph unicode="&#x2010;" horiz-adv-x="829" d="M129 532v125h571v-125h-571z" />
<glyph unicode="&#x2011;" horiz-adv-x="829" d="M129 532v125h571v-125h-571z" />
<glyph unicode="&#x2012;" horiz-adv-x="829" d="M129 532v125h571v-125h-571z" />
<glyph unicode="&#x2013;" d="M129 530v129h743v-129h-743z" />
<glyph unicode="&#x2014;" horiz-adv-x="1374" d="M129 530v129h1116v-129h-1116z" />
<glyph unicode="&#x2018;" horiz-adv-x="399" d="M92 1198q0 82 43.5 154.5t114.5 107.5l63 -67q-43 -21 -74.5 -61t-35.5 -85q39 0 62.5 -23.5t23.5 -64.5q0 -37 -25.5 -63.5t-66.5 -26.5q-50 0 -77.5 35.5t-27.5 93.5z" />
<glyph unicode="&#x2019;" horiz-adv-x="399" d="M86 1135q44 23 75.5 62.5t35.5 84.5q-39 -2 -62.5 22t-23.5 66q0 37 25.5 63.5t66.5 26.5q50 0 77 -35t27 -94q0 -83 -43.5 -155.5t-113.5 -106.5z" />
<glyph unicode="&#x201a;" horiz-adv-x="399" d="M86 -150q45 23 76 62t35 86q-39 -2 -62.5 22t-23.5 66q0 37 25.5 62.5t66.5 25.5q50 0 77 -34.5t27 -92.5q0 -83 -43.5 -155.5t-113.5 -106.5z" />
<glyph unicode="&#x201c;" horiz-adv-x="657" d="M92 1198q0 82 43.5 154.5t114.5 107.5l63 -67q-43 -21 -74.5 -61t-35.5 -85q39 0 62.5 -23.5t23.5 -64.5q0 -37 -25.5 -63.5t-66.5 -26.5q-50 0 -77.5 35.5t-27.5 93.5zM365 1198q0 83 43 155t114 107l64 -67q-43 -21 -75 -61t-36 -85q39 0 62.5 -23.5t23.5 -64.5 q0 -37 -25.5 -63.5t-66.5 -26.5q-50 0 -77 35t-27 94z" />
<glyph unicode="&#x201d;" horiz-adv-x="669" d="M86 1135q44 23 75.5 62.5t35.5 84.5q-39 -2 -62.5 22t-23.5 66q0 37 25.5 63.5t66.5 26.5q50 0 77 -35t27 -94q0 -83 -43.5 -155.5t-113.5 -106.5zM356 1135q44 23 75.5 62.5t35.5 84.5q-39 -2 -62.5 22t-23.5 66q0 37 25.5 63.5t66.5 26.5q50 0 77.5 -35.5t27.5 -93.5 q0 -83 -43.5 -155.5t-114.5 -106.5z" />
<glyph unicode="&#x201e;" horiz-adv-x="698" d="M86 -152q44 23 75.5 63t35.5 85q-39 -2 -62.5 22t-23.5 66q0 37 25.5 63.5t66.5 26.5q50 0 77 -35t27 -94q0 -83 -43.5 -155.5t-113.5 -106.5zM385 -152q44 23 75.5 63t35.5 85q-39 -2 -62.5 22t-23.5 66q0 37 25.5 63.5t66.5 26.5q50 0 77 -35t27 -94 q0 -83 -43.5 -155.5t-113.5 -106.5z" />
<glyph unicode="&#x2022;" horiz-adv-x="372" d="M57 590q0 81 34 123.5t95 42.5q62 0 95.5 -42.5t33.5 -123.5t-33.5 -124.5t-95.5 -43.5q-61 0 -95 43.5t-34 124.5z" />
<glyph unicode="&#x2026;" horiz-adv-x="940" d="M109 68q0 41 20.5 64.5t54.5 23.5t55 -23.5t21 -64.5q0 -39 -21 -62.5t-55 -23.5t-54.5 23.5t-20.5 62.5zM397 68q0 41 20 64.5t54 23.5q35 0 55.5 -23.5t20.5 -64.5q0 -40 -20.5 -63t-55.5 -23q-33 0 -53.5 23.5t-20.5 62.5zM680 68q0 41 21 64.5t55 23.5q35 0 55 -23.5 t20 -64.5q0 -40 -20 -63t-55 -23q-34 0 -54 23t-22 63z" />
<glyph unicode="&#x202f;" horiz-adv-x="375" />
<glyph unicode="&#x2039;" horiz-adv-x="641" d="M123 569l291 469l104 -67l-246 -398v-6l246 -399l-104 -68z" />
<glyph unicode="&#x203a;" horiz-adv-x="641" d="M123 168l246 399v6l-246 398l104 67l291 -469l-291 -469z" />
<glyph unicode="&#x205f;" horiz-adv-x="469" />
<glyph unicode="&#x20ac;" horiz-adv-x="819" d="M51 401v119h96l-2 55q0 34 2 50h-96v116h101q9 122 32 205.5t60.5 131t83.5 67.5t108 20q153 0 193 -110h4l2 94h115v-377h-121v37q0 111 -43.5 169t-118.5 58q-87 0 -127 -66.5t-51 -228.5h221v-116h-225v-105h225v-119h-219q10 -163 51 -227.5t125 -64.5 q75 0 111.5 53.5t54.5 169.5l121 -33q-25 -161 -89 -240t-202 -79q-142 0 -216.5 96.5t-94.5 324.5h-101z" />
<glyph unicode="&#x2122;" horiz-adv-x="1159" d="M51 1227v207h434v-207h-82v121h-86v-494h56v-86h-205v86h55v494h-90v-121h-82zM539 768v86h53v494h-53v86h184l74 -275q5 -18 10.5 -40t8 -33.5t3.5 -12.5h4q1 1 4 12.5t8.5 34t10.5 39.5l69 275h134h53v-86h-53v-494h53v-86h-201v86h51v172v53.5t0.5 56.5t1 54.5t1 50 t1 40t0.5 27.5v11h-4q-1 -1 -9 -32.5t-18.5 -73.5t-15.5 -60l-61 -225h-68l-59 225q-7 32 -25 98t-20 68h-2v-11q0 -10 0.5 -27.5t1 -40t1 -50t1 -54.5t0.5 -56.5v-53.5v-172h51v-86h-190z" />
<glyph unicode="&#xe000;" horiz-adv-x="1146" d="M0 0v1147h1147v-1147h-1147z" />
</font>
</defs>
</svg>
